:FULLY-SPECIFIED
:FORCE-ALL-JOINTS-BE-3DOF
:DEGREES
3058
root -1.6242 15.9712 -34.1733 7.51622 4.96878 1.721
lfemur -34.8675 5.79774 -1.5507
ltibia 53.6715 -0 0
lfoot -10.1114 -7.1609 -0.176334
ltoes -45.9269 0 0
rfemur -38.2667 -5.85886 25.1435
rtibia 62.0588 -0 0
rfoot -21.9264 -28.4317 -0.00326193
rtoes 3.00495 -0 0
lowerback 13.6568 0.13231 -1.58547
upperback -1.01679 0.0627849 1.68843
thorax -8.78983 0.151263 2.69157
lowerneck 4.5041 -9.3374 -12.5129
upperneck -3.65776 -12.8746 10.1506
head -0.355244 -6.51041 4.9913
lclavicle -3.97569e-15 -2.06736e-14 0
lhumerus 18.1093 -44.9625 85.3527
lradius 71.0082 -0 0
lwrist -3.95477 0 0
lhand -27.9739 36.9658 -0.0384903
lfingers 7.12502 -0 0
lthumb -1.36078 66.942 -0.0372413
rclavicle -3.97569e-15 -2.06736e-14 0
rhumerus 25.0782 47.6801 -44.0582
rradius 105.821 -0 0
rwrist -44.8452 0 0
rhand -7.62102 -39.6479 0.0197147
rfingers 7.12502 -0 0
rthumb 18.2735 -68.8093 0.0190228
3059
root -1.58558 15.9749 -34.1547 7.46915 4.90596 1.67366
lfemur -35.0002 5.64651 -1.7937
ltibia 54.0534 -0 0
lfoot -10.2527 -6.7874 -0.143115
ltoes -45.7497 0 0
rfemur -38.1517 -5.66551 25.129
rtibia 62.1395 -0 0
rfoot -21.7017 -28.4368 -0.00433092
rtoes 2.5394 -0 0
lowerback 13.6411 0.127367 -1.51427
upperback -1.00837 0.0661381 1.66638
thorax -8.7714 0.148508 2.62617
lowerneck 4.44215 -9.28111 -12.4457
upperneck -3.60038 -12.7908 10.1456
head -0.343349 -6.46837 4.97397
lclavicle -3.97569e-15 -2.06736e-14 0
lhumerus 17.8509 -45.0713 85.44
lradius 70.9706 -0 0
lwrist -3.42889 0 0
lhand -28.0107 37.0729 -0.0338438
lfingers 7.12502 -0 0
lthumb -1.39631 67.0486 -0.0327441
rclavicle -3.97569e-15 -2.06736e-14 0
rhumerus 24.6258 47.866 -44.4562
rradius 105.932 -0 0
rwrist -44.7296 0 0
rhand -7.64045 -40.3348 0.018669
rfingers 7.12502 -0 0
rthumb 18.2548 -69.4979 0.0180178
3060
root -1.54695 15.9786 -34.1362 7.41802 4.84973 1.61813
lfemur -35.1022 5.4709 -2.05832
ltibia 54.4079 -0 0
lfoot -10.4228 -6.36417 -0.110201
ltoes -45.5505 0 0
rfemur -37.9972 -5.4634 25.0935
rtibia 62.1905 -0 0
rfoot -21.4596 -28.4195 -0.00464425
rtoes 1.97566 -0 0
lowerback 13.6117 0.125654 -1.43835
upperback -1.0049 0.0746872 1.64408
thorax -8.75062 0.148062 2.55684
lowerneck 4.3609 -9.21001 -12.3625
upperneck -3.52604 -12.6854 10.1244
head -0.326888 -6.41505 4.95088
lclavicle -3.97569e-15 -2.06736e-14 0
lhumerus 17.4339 -45.1753 85.5976
lradius 70.9403 -0 0
lwrist -2.89281 0 0
lhand -28.0526 37.1616 -0.0287676
lfingers 7.12502 -0 0
lthumb -1.43677 67.1368 -0.0278315
rclavicle -3.97569e-15 -2.06736e-14 0
rhumerus 23.9678 48.0956 -45.0226
rradius 106.058 -0 0
rwrist -44.5735 0 0
rhand -7.65963 -40.9307 0.0173282
rfingers 7.12502 -0 0
rthumb 18.2363 -70.0956 0.0167281
3061
root -1.50833 15.9824 -34.1177 7.36014 4.82673 1.55495
lfemur -35.1558 5.26844 -2.34239
ltibia 54.6997 -0 0
lfoot -10.6356 -5.90241 -0.0792195
ltoes -45.3524 0 0
rfemur -37.7948 -5.25281 25.0267
rtibia 62.2063 -0 0
rfoot -21.1988 -28.3732 -0.00421616
rtoes 1.30326 -0 0
lowerback 13.5659 0.127226 -1.35662
upperback -1.00729 0.0887113 1.62196
thorax -8.7269 0.15003 2.48338
lowerneck 4.2567 -9.11952 -12.2605
upperneck -3.43088 -12.552 10.0831
head -0.3051 -6.34717 4.92076
lclavicle -3.97569e-15 -2.06736e-14 0
lhumerus 16.8041 -45.2819 85.8504
lradius 70.9349 -0 0
lwrist -2.34566 0 0
lhand -28.0984 37.2406 -0.0234999
lfingers 7.12502 -0 0
lthumb -1.481 67.2153 -0.0227339
rclavicle -3.97569e-15 -2.06736e-14 0
rhumerus 23.0243 48.3877 -45.8071
rradius 106.22 -0 0
rwrist -44.363 0 0
rhand -7.67907 -41.4242 0.0156877
rfingers 7.12502 -0 0
rthumb 18.2176 -70.5908 0.0151489
3062
root -1.46971 15.9861 -34.0991 7.29278 4.8636 1.48464
lfemur -35.1432 5.0369 -2.64394
ltibia 54.8939 -0 0
lfoot -10.9053 -5.4133 -0.051574
ltoes -45.1784 0 0
rfemur -37.5363 -5.03384 24.9184
rtibia 62.1863 -0 0
rfoot -20.9176 -28.2914 -0.00314858
rtoes 0.51173 -0 0
lowerback 13.5009 0.132152 -1.26798
upperback -1.01646 0.108489 1.60043
thorax -8.69963 0.154517 2.40555
lowerneck 4.12592 -9.00502 -12.137
upperneck -3.31112 -12.3843 10.0182
head -0.277233 -6.26145 4.88237
lclavicle -3.97569e-15 -2.06736e-14 0
lhumerus 15.9066 -45.3972 86.2239
lradius 70.9498 -0 0
lwrist -1.78656 0 0
lhand -28.1469 37.3187 -0.0182709
lfingers 7.12502 -0 0
lthumb -1.52783 67.2929 -0.0176743
rclavicle -3.97569e-15 -2.06736e-14 0
rhumerus 21.7103 48.757 -46.8645
rradius 106.437 -0 0
rwrist -44.0842 0 0
rhand -7.69928 -41.8038 0.0137424
rfingers 7.12502 -0 0
rthumb 18.1981 -70.9722 0.013275
3063
root -1.43109 15.9898 -34.0806 7.2131 4.98695 1.40758
lfemur -35.0467 4.7743 -2.96121
ltibia 54.9552 -0 0
lfoot -11.2457 -4.90804 -0.02845
ltoes -45.0516 0 0
rfemur -37.2132 -4.80638 24.7584
rtibia 62.1181 -0 0
rfoot -20.6147 -28.1676 -0.00164643
rtoes -0.40938 0 0
lowerback 13.4141 0.140517 -1.17134
upperback -1.03331 0.134298 1.57988
thorax -8.66821 0.161632 2.32314
lowerneck 3.96503 -8.86183 -11.9894
upperneck -3.16308 -12.1759 9.92612
head -0.242553 -6.15459 4.83447
lclavicle -3.97569e-15 -2.06736e-14 0
lhumerus 14.6857 -45.5252 86.7448
lradius 71.0133 -0 0
lwrist -1.21466 0 0
lhand -28.1969 37.4048 -0.0133005
lfingers 7.12502 -0 0
lthumb -1.57609 67.3785 -0.0128653
rclavicle -3.97569e-15 -2.06736e-14 0
rhumerus 19.9334 49.2115 -48.2571
rradius 106.73 -0 0
rwrist -43.7231 0 0
rhand -7.72076 -42.058 0.0114924
rfingers 7.12502 -0 0
rthumb 18.1775 -71.2283 0.0111059
3064
root -1.39247 15.9935 -34.062 7.11814 5.2234 1.32404
lfemur -34.8487 4.47889 -3.29274
ltibia 54.8484 -0 0
lfoot -11.6711 -4.39777 -0.0108509
ltoes -44.9952 0 0
rfemur -36.8176 -4.56999 24.5366
rtibia 61.9969 -0 0
rfoot -20.2885 -27.9953 -3.47645e-05
rtoes -1.47053 0 0
lowerback 13.3025 0.152429 -1.0656
upperback -1.05874 0.166416 1.56072
thorax -8.63204 0.171487 2.23593
lowerneck 3.77055 -8.68521 -11.815
upperneck -2.98319 -11.9201 9.80356
head -0.200347 -6.0233 4.77584
lclavicle -3.97569e-15 -2.06736e-14 0
lhumerus 13.0847 -45.667 87.4409
lradius 71.1319 -0 0
lwrist -0.629091 0 0
lhand -28.2471 37.5076 -0.00879608
lfingers 7.12502 -0 0
lthumb -1.6246 67.4808 -0.00850755
rclavicle -3.97569e-15 -2.06736e-14 0
rhumerus 17.5923 49.7497 -50.0569
rradius 107.117 -0 0
rwrist -43.2658 0 0
rhand -7.74403 -42.1753 0.00894884
rfingers 7.12502 -0 0
rthumb 18.1551 -71.3477 0.00865186
3065
root -1.35384 15.9973 -34.0435 7.00482 5.59954 1.23407
lfemur -34.5313 4.14922 -3.63743
ltibia 54.5386 -0 0
lfoot -12.1957 -3.89364 0.000340144
ltoes -45.0321 0 0
rfemur -36.3415 -4.32382 24.243
rtibia 61.8164 -0 0
rfoot -19.9375 -27.7679 0.00122255
rtoes -2.68219 0 0
lowerback 13.1636 0.168021 -0.949677
upperback -1.09368 0.205121 1.54335
thorax -8.59051 0.184196 2.1437
lowerneck 3.53914 -8.47033 -11.6116
upperneck -2.76804 -11.6104 9.64728
head -0.149928 -5.86427 4.70527
lclavicle -3.97569e-15 -2.06736e-14 0
lhumerus 11.0455 -45.8193 88.3413
lradius 71.3175 -0 0
lwrist -0.0289877 0 0
lhand -28.2964 37.6358 -0.00495381
lfingers 7.12502 -0 0
lthumb -1.6722 67.6086 -0.00479079
rclavicle -3.97569e-15 -2.06736e-14 0
rhumerus 14.5745 50.3563 -52.3473
rradius 107.621 -0 0
rwrist -42.6985 0 0
rhand -7.76959 -42.1442 0.00614161
rfingers 7.12502 -0 0
rthumb 18.1305 -71.3189 0.00594106
3066
root -1.31522 16.001 -34.0249 6.86992 6.14197 1.13744
lfemur -34.0767 3.78409 -3.99459
ltibia 53.9904 -0 0
lfoot -12.8334 -3.40672 0.00427011
ltoes -45.1856 0 0
rfemur -35.7769 -4.06646 23.8678
rtibia 61.5699 -0 0
rfoot -19.5602 -27.4788 0.00150234
rtoes -4.05482 0 0
lowerback 12.9946 0.187454 -0.822503
upperback -1.13902 0.250694 1.52816
thorax -8.54304 0.199878 2.04624
lowerneck 3.26755 -8.21227 -11.3767
upperneck -2.51442 -11.24 9.45431
head -0.0906445 -5.67421 4.6216
lclavicle -3.97569e-15 -2.06736e-14 0
lhumerus 8.50922 -45.9734 89.4761
lradius 71.5819 -0 0
lwrist 0.586514 0 0
lhand -28.3435 37.7984 -0.0019609
lfingers 7.12502 -0 0
lthumb -1.71771 67.7707 -0.00189607
rclavicle -3.97569e-15 -2.06736e-14 0
rhumerus 10.7572 50.9969 -55.2223
rradius 108.259 -0 0
rwrist -42.007 0 0
rhand -7.79796 -41.9533 0.00312756
rfingers 7.12502 -0 0
rthumb 18.1032 -71.1305 0.00302746
